<?xml version="1.0" standalone="no"?><!DOCTYPE svg PUBLIC "-//W3C//DTD SVG 1.1//EN" "http://www.w3.org/Graphics/SVG/1.1/DTD/svg11.dtd"><svg t="1723625709711" class="icon" viewBox="0 0 1064 1024" version="1.1" xmlns="http://www.w3.org/2000/svg" p-id="5966" xmlns:xlink="http://www.w3.org/1999/xlink" width="207.8125" height="200"><path d="M315.097872 40.851064A102.12766 102.12766 0 0 0 212.970213 142.978723c0 14.706383 14.828936 28.187234 20.425532 40.851064h-204.255319v204.255319c12.66383-5.596596 26.144681-20.425532 40.851063-20.425532a102.12766 102.12766 0 1 1 0 204.25532c-14.706383 0-28.187234-14.828936-40.851063-20.425532v204.255319h571.914893v-204.255319c12.66383 5.596596 26.144681 20.425532 40.851064 20.425532a102.12766 102.12766 0 1 0 0-204.25532c-14.706383 0-28.187234 14.828936-40.851064 20.425532v-204.255319h-204.255319c5.596596-12.66383 20.425532-26.144681 20.425532-40.851064A102.12766 102.12766 0 0 0 315.097872 40.851064z" fill="#a236b2" p-id="5967"></path><path d="M69.991489 306.382979v-81.702128h122.553192M69.991489 714.893617v-81.702128M396.8 224.680851h122.553191" fill="#a236b2" p-id="5968"></path><path d="M531.322553 468.970213l-57.763404-57.804256" fill="#a236b2" p-id="5969"></path><path d="M863.523404 858.893617a102.12766 102.12766 0 0 0 0-144.408511c-10.417021-10.417021-30.474894-9.477447-43.342978-14.461276l144.40851-144.408511-144.40851-144.449362c-4.98383 12.868085-4.085106 32.925957-14.461277 43.302128a102.12766 102.12766 0 1 1-144.408511-144.408511c10.37617-10.37617 30.434043-9.477447 43.302128-14.420425L560.204255 151.148936l-404.425532 404.425532 144.449362 144.408511c-12.868085 4.98383-32.925957 4.085106-43.302128 14.461276a102.12766 102.12766 0 1 0 144.408511 144.408511c10.37617-10.37617 9.477447-30.434043 14.420426-43.302128L560.204255 960l144.449362-144.449362c4.942979 12.908936 4.044255 32.966809 14.420426 43.342979a102.12766 102.12766 0 0 0 144.449361 0z" fill="#f58220" p-id="5970"></path><path d="M849.062128 497.811064l57.763404 57.804255" fill="#f58220" p-id="5971"></path></svg>